<svg xmlns="http://www.w3.org/2000/svg" viewBox="0 0 1024 1024">
  <path fill="currentColor" d="M473 941a422 422 0 0 1-219-88l2 13 1 13-1 2-2 1-1-1c-2-1-3-7-6-24l-1-14 1-2 2-1 12-1 18-3h7l1 2 1 2-1 1-20 4-7 1 3 3c51 43 129 75 205 85l13 1h68l18-2c88-14 158-49 228-115l17-17 2 2 1 1-1 2a409 409 0 0 1-257 134l-12 2h-31l-41-1zM72 837H54l-3-2c-4-2-8-7-10-11l-2-3v-67l2-5c3-11 12-21 22-25l5-2h54l5 2c11 6 14 11 20 31l4 13h28v-3l3-18c4-19 7-25 18-30l4-1h89l4 2c4 2 8 6 11 11l2 4v73l-3 5-4 5-5 3-6 3h-74l-4 7-4 8H72Zm45-7c3-2 5-6 5-10v-3l-4-4-4-4h-10l-17-1-8-1-2-2c-1-1-3-3-3-6l-1-3 1-14v-13h4v31l3 2 2 2h30l4 2 6 5c4 4 4 4 7-3l10-21 7-15-1-4-5-16-4-12-2-3-10-9-2-1H67l-5 3-5 2-4 5-6 9-2 5v71l2 3 5 5 3 2h60Zm98-12 14-29 7-15-42-1-42 1-15 29-14 29h85zm81-3 7-7 3-4v-69l-3-5-2-4-5-3-4-3h-85l-3 1c-11 3-15 11-18 35l-2 10v2h28l28 1 1 1 1 1-3 7c-4 8-6 8 23 7h15v-37h2l2 1v38l-1 1-1 2h-23l-23 1-5 11-6 13-1 2h72zm693-15-5-3-2-3c-4-5-5-9-5-17v-7l-13-9c-15-12-12-11-23-3-22 17-45 32-56 37l-5 2-3-1a293 293 0 0 1-95-76l-2-1-7 6-9 7-2 2 1 7v7l-1 3c-6 18-29 21-40 5l-3-4v-5l-1-5 1-5 2-6 3-3 7-5 3-1h13l5 3 6 3 9-7 9-8 1-1-5-12c-6-13-9-25-11-36l-1-7v-71l1-2c2-4 11-9 26-17l13-8 2-2-8-6c-11-9-10-8-15-6l-9 3h-5l-4-1-4-1-4-4-6-6-1-3v-13l2-4c4-8 8-11 17-12l5-1 4 1 4 1 4 4 4 3 2 5 1 4v7l-1 8 2 2 20 16 20-11 32-18 12-6h10l14 7 33 18 18 10 11-8 10-9v-19l1-3 6-6 4-4 6-1 5-1 5 1 6 2 4 4 4 5 1 4c3 10-2 22-11 27l-3 1h-14l-5-2-4-3-9 7c-11 9-11 8 3 16l19 10 7 5 2 3 2 3 1 9v35l-1 27-2 12c-6 28-16 48-34 69l-7 8 12 9 12 9 3-1a1200 1200 0 0 1 11-6l5-1 5 1 6 2 4 4 4 4 1 5c5 15-5 30-20 30h-5zm17-7 6-6 2-3v-6l-1-5-2-3c-3-4-8-6-13-6h-5l-3 3-5 6-1 3v5l1 5 2 3c3 4 7 6 12 6h4Zm-116-8 38-26 12-8 13-13c21-22 31-42 38-72l1-9v-35l1-34-4-3-16-10-79-43-13-7-3 1c-5 1-80 42-105 57l-6 4v68l1 9c2 17 11 39 22 55l5 7 12 13 13 12 11 8c17 13 46 31 49 31l10-5zm-30-47c-20-3-37-19-42-39l-1-5v-51l1-5c2-8 10-14 20-15l5-1v-5l1-13 1-8 3-7 3-6 5-4 5-5 6-2 6-2h14l6 3c4 1 8 4 11 6l4 4 3 6 3 7 1 13v13h5l9 3 4 3 4 5 4 5 1 20v21l-1 12-1 12-4 8-4 8-6 5-6 6-7 3-7 4-9 1h-37zm39-7c17-3 32-17 35-35l1-6v-24l-1-24-1-3c-2-4-6-8-9-9l-3-1h-40l-44 1-5 1-3 2-4 6-2 4v22l1 29 1 7 3 7 3 6 6 5c6 6 14 11 21 12h41zm-21-30-2-8v-8l-4-3-6-5-1-3v-10l2-3 4-4 3-2h10l3 2c7 4 9 11 5 19l-2 4-3 2-4 2v7c0 9-3 14-5 10zm7-27 2-5v-3l-2-3-3-2h-7l-2 3c-3 4-3 7 0 10l2 3h8Zm23-65v-12l-3-5c-5-9-15-15-24-16h-5l-6 2-6 2-4 5-7 9-2 5-1 10v12l1 1h57zM748 758l4-2 2-4 2-3v-10l-2-3-2-3-4-3-4-2h-8l-3 2-6 6-2 3v4c0 10 7 17 16 17h4zm27-219 6-6 2-3v-8l-2-5-3-4-3-1-7-2-8 2-3 1-3 4-2 5v3c0 6 3 11 7 14l3 2h10zm224 0 5-6c4-7 2-16-5-21l-3-2h-4l-8 2-3 1-3 5-2 4v5c1 5 3 8 8 12l3 2h9ZM91 710c-11-3-19-10-24-20l-2-5v-16l2-7 3-6 5-5 11-7 5-2h16l6 3 7 3 4 5 5 5 2 6 2 5v15l-2 5-1 5-7 6-7 7-5 1-10 3h-6zm20-7c6-2 12-9 15-15l2-4v-16l-2-3c-3-6-8-12-13-15l-5-3H91l-4 2c-9 5-16 14-18 24v5l1 5c2 10 10 18 20 22l4 1h7l6-1zm126 4c-9-2-19-11-24-21l-2-5v-17l3-6c3-7 9-13 16-17l5-2h22l5 2c6 4 14 12 16 18l2 5 1 8v8l-2 5-2 6-5 5-5 6-6 2-5 3h-19zm22-7c2 0 5-3 8-6l5-4 2-5 2-9 1-4-2-6c-3-12-11-20-24-23l-6-1-5 1c-10 2-18 9-22 17l-2 5v15l2 5c5 12 16 18 30 18l8-1zm-157-75c-5-14-10-39-13-59l-2-15-1-30v-30l1-16a404 404 0 0 1 19-97l-13 7-13 7-3-6a682 682 0 0 1 29-16l5-3h1l4 6 10 16c8 14 8 13 4 15l-2 1-1-1a4567 4567 0 0 1-14-23 239 239 0 0 0-11 43 306 306 0 0 0-9 72v26l1 20c1 23 3 37 10 63l4 21v3h-2c-2 1-3 1-4-4zm245-1h-4l-3-2c-3-3-6-10-6-14v-4l3-3 19-17 16-14-1-2-1-2V393l2-4 5-5 3-2h266l3 2 5 6 1 2v88l-1 89-1 1 9 8 19 17 10 9v5c-1 5-4 11-8 14l-2 2H516l-169-1zm332-6 5-5c0-2-40-2-183-1H340l2 3c3 5-12 5 175 5h159Zm5-12c0-1-9-10-23-21l-12-11-3 1-3 1h-46l-46 1 1 8 2 9v2l-1 3h-80l-1-2-2-2 2-6 2-9v-4h-48l-49-1h-2l-17 15-18 16a19710 19710 0 0 0 344 0zm-135-14-3-9-1-7h-65l-2 8-2 9 37 1h36zm97-23 2-1 1-4 1-4v-21l-138-1H375v14l1 14 1 2 2 2h26l133 1 106-1zm4-100-1-71v-7l-3-2-4-2-131 1H380l-3 3-2 2v140h275Zm-86 31c-12-4-22-12-28-23l-2-5-1-8v-14l1-6 2-6 3-5 6-6 5-6 7-3 7-3 10-1h9l7 2c7 2 9 3 7 5l-1 1-6-1-11-3h-6l-6 1c-12 3-22 11-27 22l-2 6v11l-1 11 3 6 3 6 6 5 5 5 5 3 11 3 6 1 7-1c9-2 15-5 22-12l5-5 3-6 2-5v-28h2l2 4 2 10v6l-1 5c-5 22-23 36-44 36h-6zm-154-6-1-1v-24l2-1 3-1h6l7-1 2 2 3 1v22l-2 2-1 2h-18Zm15-13v-6l-5-1h-4v14h9zm20 13-2-1v-42l1-1 1-1h18l1 3 1 2v20l-1 19-1 1h-18zm13-22v-16h-8v32h8zm20 22-2-1v-54l1-1 2-2h17l1 1 2 1v55l-2 1h-19zm14-28v-22h-8l-1 20v23l1 1h8zm75 19-9-5-5-4-3-6-2-5v-14l2-6c8-15 27-21 40-12l2 1-1 1-1 1-6-2-7-1-6 1-5 1-4 3-4 3-3 5-3 6v5c0 7 2 11 6 17l2 3 5 3 6 2h12l5-3c11-5 16-18 12-30l-2-4 2-1h1l2 1 2 8 1 5-1 5-1 6-3 5c-8 11-21 15-34 11zm2-15-3-2-2-5-2-4v-4c2-8 18-16 20-9 0 1-1 2-6 2l-4 1-3 3-2 2v7l2 3 6 3 3 1 3-2 3-1 1-3 1-5 1-2h3v4c0 5-3 9-6 11l-3 2h-8zm6-11v-1l11-11 11-12v-9l7-7c8-7 9-7 9 0v4h5l4 1 1 1v1l-7 7-6 6h-10l-11 11c-11 10-12 11-14 9zm353 13-13-13-7-6 2-2 2-2 8 7 8 7 1-3c1-14-14-75-26-102l-5-10 1-2 2-1 2 1c8 5 27 69 32 108 2 12 1 12 10 1 8-11 8-11 10-8l2 2-11 14c-12 17-11 17-18 9ZM768 361l-5-2-2-3-1-10c-2-13-3-13-8-15l-11-5-6-2-2 1c-2 0-6 4-11 7l-11 7h-3l-14-14-14-14v-5l7-11c7-12 7-10 2-22-4-13-2-11-16-14l-14-4-3-1v-43l3-2 14-3c12-2 13-2 14-6l3-10c4-9 4-8-3-20l-7-10v-5l6-7 22-21 3-1 2 1 11 6 10 7c1 1 14-3 20-6 3-1 3-2 6-14 2-11 3-15 5-16l2-1h16l19 1h4l1 3 3 13 3 13c2 2 22 8 23 7a351 351 0 0 0 22-14h3l6 5 15 15 8 8v3c0 3-3 8-8 16-6 8-6 6-1 20 5 13 3 11 17 13l12 2 2 2 3 2v6l1 19-1 13-1 2c-2 3-5 4-18 7-12 2-11 1-18 22l-1 3 5 8 6 11 2 4-1 3v3l-12 11c-6 7-13 13-15 13l-3 2-3-1-11-7c-10-8-8-8-21-3-12 5-11 4-15 19l-4 13-1 1-17 1-19-1zm34-10c4-23 4-23 24-31l9-3 4 1 12 8 8 6 11-11 12-12 1-2-6-9c-9-13-9-12-2-31l4-9 2-2 3-2 11-2 11-2 2-2 1-1v-15l-1-16-1-1-11-3-14-3-3-1-2-5a284 284 0 0 0-7-23v-2l7-10 6-10-2-3c-2-2-16-17-21-20l-2-2-9 6-11 8-2 1-4-1-24-9c-1-1-4-11-5-21l-1-7h-34v3l-3 13-1 9-2 2-1 2-12 5-15 4h-2l-10-8-10-7-11 10-12 12-2 3 6 9 7 12 1 2-3 9-5 13c-3 7-4 7-27 11l-4 1v35l10 2 13 2 4 1 2 2 5 15 5 12-2 3-6 11-5 9v2l11 12 12 11 9-7 12-8h2l7 2 22 11 5 25h33zm-33-40-1-2 1-7a791 791 0 0 1 6-50l-1-1h-20l-21-1-2-1-1-2 3-5c5-11 50-79 55-85 5-5 7-3 7 4l-7 48v2h21l21 1 2 1 1 2-5 9c-15 27-51 84-54 88-3 3-4 3-5-1zm21-35 34-57-20-1h-20l-2-2-1-4a469 469 0 0 0 7-39v-4l-1 1c-2 1-48 72-48 73l21 1 20 1 1 1a1317 1317 0 0 0-6 52c0 1 4-4 15-22zM87 335c-16-6-26-18-29-33l-1-5v-8l1-9 3-6 3-7 5-5c7-6 11-9 19-12l6-2 2-9c5-25 18-40 40-49l6-2h27l5 2c8 3 8 3 9-1l9-10 7-8 8-5 8-5 10-3 9-3h14l13 1 6 2c3 0 9 3 13 5l8 4 6 6c15 14 24 32 26 51l1 8 6 2 12 5 6 3 6 7 6 6 4 8 4 8v28l-4 7-4 8-7 7-7 7-9 4-8 5H92zm226-9 12-1 6-3 11-8 5-4 4-8 3-7v-10l1-9-3-7-2-6-6-6-6-7-5-2-12-4-8-2c-2 0-3-5-3-11l-2-13-1-7-5-10-4-9-7-8-8-7-6-3-14-6-7-2h-21l-7 2c-15 5-26 14-36 28l-6 9-2-1-11-3-8-3h-18l-6 2c-9 3-14 6-20 13l-6 5-4 7-3 8-1 11-1 11-1 2-8 2c-8 1-13 3-19 9l-5 5-2 6-4 11v5l2 7 2 7 4 5 4 5 6 3 5 3 9 1 105 1h98zm321-202v-3l5-2 12-4 8-3-1-1c-8-9-80-24-121-26l-20-1h-22c-49 2-94 11-138 28l-18 7-2-1-1-2 1-2 1-2 15-6c95-37 206-39 299-5 14 5 13 5 8-8l-5-13-1-2 1-1 2-1 2 2 15 32v3l-5 2-33 11h-2Z"/>
</svg>