<?xml version="1.0" encoding="UTF-8" standalone="no"?>
<!-- Created with Inkscape (http://www.inkscape.org/) -->

<svg
   version="1.1"
   id="svg1"
   width="22.000038"
   height="22.002075"
   viewBox="0 0 22.000038 22.002075"
   xmlns="http://www.w3.org/2000/svg"
   xmlns:svg="http://www.w3.org/2000/svg">
  <defs
     id="defs1" />
  <path
     id="path3"
     d="M 11.010665,1.62922e-5 C 4.9226649,1.62922e-5 -1.6578e-6,5.0426828 -1.6578e-6,11.281349 c 0,4.985334 3.1519999578,9.204 7.5266664578,10.698667 0.5466667,0.114666 0.7493333,-0.24 0.7493333,-0.542667 0,-0.26 -0.02,-1.156 -0.02,-2.088 -3.0626666,0.672 -3.6986665,-1.344 -3.6986665,-1.344 -0.4946667,-1.306666 -1.224,-1.645333 -1.224,-1.645333 -1,-0.693333 0.073333,-0.693333 0.073333,-0.693333 1.1146667,0.07867 1.6973333,1.161333 1.6973333,1.161333 0.9853333,1.72 2.568,1.229333 3.2093333,0.933333 0.088,-0.729333 0.38,-1.234666 0.692,-1.510666 -2.4426667,-0.265334 -5.0146666,-1.234667 -5.0146666,-5.568 0,-1.2346669 0.4373333,-2.2400003 1.1293333,-3.0253336 -0.1093333,-0.276 -0.4893333,-1.4386666 0.1093333,-2.9853332 0,0 0.932,-0.3013334 3.0266666,1.1559999 0.9013333,-0.2493333 1.8226672,-0.3746666 2.7546672,-0.3746666 0.928,0 1.874666,0.1306667 2.750666,0.3746666 2.098667,-1.4573333 3.025334,-1.1559999 3.025334,-1.1559999 0.604,1.5466666 0.218666,2.7093332 0.109333,2.9853332 0.713333,0.7853333 1.130667,1.7906667 1.130667,3.0253336 0,4.333333 -2.568,5.286666 -5.032,5.568 0.401333,0.354666 0.750666,1.025333 0.750666,2.088 0,1.510666 -0.02133,2.729333 -0.02133,3.098666 0,0.302667 0.204,0.657333 0.750667,0.542667 4.374666,-1.494667 7.525333,-5.713333 7.525333,-10.698667 C 22.015998,5.0426828 17.078665,1.62922e-5 11.010665,1.62922e-5 Z"
     style="fill:#0042aa;fill-opacity:1;fill-rule:evenodd;stroke:none;stroke-width:1.33333" />
</svg>
