<?xml version="1.0" encoding="UTF-8" standalone="no"?>
<svg
   version="1.1"
   id="svg1"
   width="19.060287"
   height="18.001099"
   viewBox="0 0 19.060287 18.001099"
   xmlns="http://www.w3.org/2000/svg"
   xmlns:svg="http://www.w3.org/2000/svg">
  <defs
     id="defs1">
    <clipPath
       clipPathUnits="userSpaceOnUse"
       id="clipPath21">
      <path
         d="M 0,0 H 1071 V 1515 H 0 Z"
         id="path21" />
    </clipPath>
  </defs>
  <path
     d="m 63.836,675 c 0,0.613 -0.371,1.16 -0.938,1.391 -0.562,0.23 -1.21,0.093 -1.636,-0.348 -0.426,-0.438 -0.543,-1.09 -0.297,-1.648 0.246,-0.559 0.808,-0.915 1.418,-0.895 0.808,0.023 1.453,0.691 1.453,1.5 z m 0.047,2.609 h -3 V 687 h 3 z m 4.738,0 H 65.637 V 687 h 2.957 v -4.926 c 0,-2.746 3.574,-3 3.574,0 V 687 h 2.965 v -5.945 c 0,-4.629 -5.297,-4.457 -6.539,-2.184 z"
     style="fill:#0042aa;fill-opacity:1;fill-rule:nonzero;stroke:none"
     transform="matrix(1.3333333,0,0,1.3333333,-81.117045,-897.99888)"
     clip-path="url(#clipPath21)"
     id="path22" />
</svg>