<?xml version="1.0" encoding="UTF-8" standalone="no"?>
<!-- Created with Inkscape (http://www.inkscape.org/) -->

<svg
   version="1.1"
   id="svg1"
   width="20"
   height="20"
   viewBox="0 0 20 20"
   xmlns="http://www.w3.org/2000/svg"
   xmlns:svg="http://www.w3.org/2000/svg">
  <defs
     id="defs1">
    <clipPath
       clipPathUnits="userSpaceOnUse"
       id="clipPath13">
      <path
         d="M 0,0 H 1071 V 1515 H 0 Z"
         id="path13" />
    </clipPath>
  </defs>
  <path
     d="m 75.484,606.684 v 2.945 c 0,0.437 -0.339,0.801 -0.773,0.832 -0.367,0.027 -0.664,0.039 -0.895,0.039 -7.363,0 -13.332,-5.969 -13.332,-13.332 0,-0.23 0.012,-0.527 0.039,-0.895 0.032,-0.433 0.395,-0.773 0.832,-0.773 h 2.946 c 0.215,0 0.394,0.16 0.414,0.375 0.019,0.191 0.039,0.344 0.055,0.461 0.168,1.176 0.511,2.297 1.003,3.332 0.082,0.168 0.028,0.367 -0.121,0.473 l -1.797,1.285 c 1.094,2.558 3.145,4.609 5.704,5.703 l 1.281,-1.793 c 0.109,-0.152 0.308,-0.203 0.48,-0.125 1.035,0.492 2.157,0.836 3.332,1.004 0.114,0.015 0.266,0.035 0.457,0.055 0.215,0.019 0.375,0.199 0.375,0.414 z"
     style="fill:#0042aa;fill-opacity:1;fill-rule:nonzero;stroke:none"
     transform="matrix(1.3333333,0,0,1.3333333,-80.645332,-794)"
     clip-path="url(#clipPath13)"
     id="path14" />
</svg>
